# AST/ASF file generated using VICON BodyLanguage
# -----------------------------------------------
:version 1.10
:name VICON
:units
  mass 1.0
  length 0.45
  angle deg
:documentation
   .ast/.asf automatically generated from VICON data using
   VICON BodyBuilder and BodyLanguage model FoxedUp or BRILLIANT.MOD
:root
   order TX TY TZ RX RY RZ
   axis XYZ
   position 0 0 0  
   orientation 0 0 0 
:bonedata
  begin
     id 1 
     name lhipjoint
     direction 0.570549 -0.739093 0.358072 
     length 2.41801 
     axis 0 0 0  XYZ
  end
  begin
     id 2 
     name lfemur
     direction 0.34202 -0.939693 0  
     length 7.44434  
     axis 0 0 20  XYZ
    dof rx ry rz
    limits (-160.0 20.0)
           (-70.0 70.0)
           (-60.0 70.0)
  end
  begin
     id 3 
     name ltibia
     direction 0.34202 -0.939693 0   
     length 7.60047   
     axis 0 0 20   XYZ
    dof rx
    limits (-10.0 170.0)
  end
  begin
     id 4 
     name lfoot
     direction 0.0909041 -0.249757 0.964032   
     length 2.03437   
     axis -90 7.62852e-016 20   XYZ
    dof rx rz
    limits (-45.0 90.0)
           (-70.0 20.0)
  end
  begin
     id 5 
     name ltoes
     direction 1.53547e-011 -4.2174e-011 1   
     length 1.02054   
     axis -90 7.62852e-016 20   XYZ
    dof rx
    limits (-90.0 20.0)
  end
  begin
     id 6 
     name rhipjoint
     direction -0.558096 -0.746754 0.361784   
     length 2.3932  
     axis 0 0 0  XYZ 
  end
  begin
     id 7 
     name rfemur
     direction -0.34202 -0.939693 0   
     length 7.3886   
     axis 0 0 -20   XYZ
    dof rx ry rz
    limits (-160.0 20.0)
           (-70.0 70.0)
           (-70.0 60.0)
  end
  begin
     id 8 
     name rtibia
     direction -0.34202 -0.939693 0   
     length 7.4839   
     axis 0 0 -20   XYZ
    dof rx
    limits (-10.0 170.0)
 end
 begin
     id 9 
     name rfoot
     direction -0.114619 -0.314914 0.942174   
     length 2.25127  
     axis -90 -7.62852e-016 -20   XYZ
    dof rx rz
    limits (-45.0 90.0)
           (-20.0 70.0)
  end
  begin
     id 10 
     name rtoes
     direction -1.53518e-011 -4.21881e-011 1   
     length 1.11821   
     axis -90 -7.62852e-016 -20   XYZ
    dof rx
    limits (-90.0 20.0)
  end
  begin
     id 11 
     name lowerback
     direction -0.00902269 0.996426 -0.0839821   
     length 2.25052   
     axis 0 0 0   XYZ
    dof rx ry rz
    limits (-20.0 45.0)
           (-30.0 30.0)
           (-30.0 30.0)
  end
  begin
     id 12 
     name upperback
     direction 0.0370973 0.999169 -0.0168941   
     length 2.24876   
     axis 0 0 0   XYZ
    dof rx ry rz
    limits (-20.0 45.0)
           (-30.0 30.0)
           (-30.0 30.0)
  end
  begin
     id 13 
     name thorax
     direction 0.0402726 0.998931 0.0227027   
     length 2.26408   
     axis 0 0 0   XYZ
    dof rx ry rz
    limits (-20.0 45.0)
           (-30.0 30.0)
           (-30.0 30.0)
  end
  begin
     id 14 
     name lowerneck
     direction -0.0733697 0.98508 0.155675   
     length 1.58204   
     axis 0 0 0   XYZ
    dof rx ry rz
    limits (-20.0 45.0)
           (-30.0 30.0)
           (-30.0 30.0)
  end
  begin
     id 15 
     name upperneck
     direction 0.0426554 0.993501 -0.105526   
     length 1.61222   
     axis 0 0 0   XYZ
    dof rx ry rz
    limits (-20.0 45.0)
           (-30.0 30.0)
           (-30.0 30.0)
  end
  begin
     id 16
     name head
     direction 0.020792 0.998384 -0.0528868  
     length 1.61527  
     axis 0 0 0   XYZ
    dof rx ry rz
    limits (-20.0 45.0)
           (-30.0 30.0)
           (-30.0 30.0)
  end
  begin
     id 17 
     name lclavicle
     direction 0.967109 0.155462 -0.201325  
     length 3.59357  
     axis 0 0 0   XYZ
    dof ry rz
    limits (-20.0 10.0)
           (0.0 20.0)
  end
  begin
     id 18 
     name lhumerus
     direction 1 -4.48968e-011 2.38195e-027   
     length 5.38154   
     axis 180 -30 -90   XYZ
    dof rx ry rz
    limits (-60.0 90.0)
           (-90.0 90.0)
           (-90.0 90.0)
  end
  begin
     id 19
     name lradius
     direction 1 -4.48961e-011 4.85371e-027   
     length 3.33312   
     axis 180 -30 -90   XYZ
    dof rx
    limits (-10.0 170.0)
  end
  begin
     id 20
     name lwrist
     direction 1 -4.48961e-011 4.76515e-027   
     length 1.66656   
     axis -3.27502e-015 90 90   XYZ
    dof ry
    limits (-180.0 0.0)
 end
  begin
     id 21 
     name lhand
     direction 1 -4.48951e-011 9.53074e-027   
     length 0.710789   
     axis -6.08098e-015 90 90   XYZ
    dof rx rz
    limits (-90.0 90.0)
           (-45.0 45.0)
  end
  begin
     id 22 
     name lfingers
     direction 1 -4.48953e-011 1.90613e-026   
     length 0.573057   
     axis -1.21619e-014 90 90   XYZ
    dof rx
    limits (0.0 90.0)
  end
  begin
     id 23
     name lthumb
     direction 0.707107 -6.34973e-011 0.707107   
     length 0.822798   
     axis -90 45 -9.86923e-015   XYZ
    dof rx rz
    limits (-45.0 45.0)
           (-45.0 45.0)
  end
  begin
     id 24 
     name rclavicle
     direction -0.9585 0.265289 -0.104398   
     length 3.42039  
     axis 0 0 0   XYZ 
    dof ry rz
    limits (-10.0 20.0)
           (-20.0 0.0)
  end
  begin
     id 25 
     name rhumerus
     direction -1 -4.48977e-011 2.21478e-027  
     length 5.16954   
     axis 180 30 90   XYZ
    dof rx ry rz
    limits (-90.0 60.0)
           (-90.0 90.0)
           (-90.0 90.0)
  end
  begin
     id 26 
     name rradius
     direction -1 -4.48967e-011 5.63677e-027   
     length 3.38287   
     axis 180 30 90   XYZ
    dof rx
    limits (-10.0 170.0)
  end
  begin
     id 27 
     name rwrist
     direction -1 -4.48967e-011 4.76501e-027   
     length 1.69144   
     axis -3.27502e-015 -90 -90   XYZ
    dof ry
    limits (-180.0 0.0)
  end
  begin
     id 28
     name rhand
     direction -1 -4.48902e-011 9.53292e-027   
     length 0.817967   
     axis -6.08098e-015 -90 -90   XYZ
    dof rx rz
    limits (-90.0 90.0)
           (-45.0 45.0)
  end
  begin
     id 29
     name rfingers
     direction -1 -4.49012e-011 1.90561e-026   
     length 0.659466   
     axis -1.21619e-014 -90 -90   XYZ
    dof rx
    limits (0.0 90.0)
  end
  begin
     id 30
     name rthumb
     direction -0.707107 -6.34944e-011 0.707107   
     length 0.946865   
     axis -90 -45 9.86923e-015   XYZ
    dof rx rz
    limits (-45.0 45.0)
           (-45.0 45.0)
  end
:hierarchy
  begin
    root lhipjoint rhipjoint lowerback
    lhipjoint lfemur
    lfemur ltibia
    ltibia lfoot
    lfoot ltoes
    rhipjoint rfemur
    rfemur rtibia
    rtibia rfoot
    rfoot rtoes
    lowerback upperback
    upperback thorax
    thorax lowerneck lclavicle rclavicle
    lowerneck upperneck
    upperneck head
    lclavicle lhumerus
    lhumerus lradius
    lradius lwrist
    lwrist lhand lthumb
    lhand lfingers
    rclavicle rhumerus
    rhumerus rradius
    rradius rwrist
    rwrist rhand rthumb
    rhand rfingers
  end

#!OML:ASF F:\twosubjects\two\wednesday\Session 1\Justin1.ASF
:FULLY-SPECIFIED
:DEGREES
202
root -5.96199 17.4593 -3.43065 -170.964 6.47231 -173.715
lowerback 1.08164 6.53011 2.65294
upperback -1.08541 8.82118 1.03473
thorax -1.48397 4.40287 -0.593141
lowerneck -8.67913 -12.5484 -17.9419
upperneck 10.2461 -16.9616 15.499
head 7.45556 -8.07167 6.01424
rclavicle -5.54578e-015 7.74639e-015
rhumerus -8.02632 -8.90714 -92.3814
rradius 19.2832
rwrist 10.1431
rhand -16.2978 19.1292
rfingers 7.12502
rthumb 9.91285 -10.6174
lclavicle -5.54578e-015 7.74639e-015
lhumerus -28.5074 8.59929 84.5515
lradius 41.8826
lwrist -7.46857
lhand -2.07203 30.5658
lfingers 7.12502
lthumb 23.6043 59.137
rfemur 19.8967 4.59069 29.7448
rtibia 0
rfoot 2.55446 9.46665
rtoes 9.82652
lfemur -34.7987 -1.11999 -11.8094
ltibia 28.5962
lfoot -6.72159 2.4445
ltoes -15.5005
203
root -5.98553 17.475 -3.64078 -171.193 5.71655 -174.434
lowerback 0.706099 6.23273 1.94176
upperback -0.800019 8.38147 0.95701
thorax -1.08142 4.19163 -0.220451
lowerneck -8.72337 -12.6285 -18.0652
upperneck 9.7364 -17.0053 15.7496
head 7.34447 -8.08105 6.10698
rclavicle 9.18828e-014 6.23687e-015
rhumerus -10.7004 -12.628 -91.3631
rradius 18.5169
rwrist 13.8761
rhand -13.9432 18.4847
rfingers 7.12502
rthumb 12.1839 -11.1404
lclavicle 9.18828e-014 6.23687e-015
lhumerus -28.3243 9.23369 84.3648
lradius 42.1413
lwrist -7.7553
lhand -1.30647 30.4578
lfingers 7.12502
lthumb 24.3384 58.9325
rfemur 20.5423 3.76197 28.8456
rtibia -4.45278e-014
rfoot 4.34508 9.25198
rtoes 8.86399
lfemur -34.2304 -1.12936 -13.0811
ltibia 28.4959
lfoot -5.20219 1.56275
ltoes -18.167
204
root -6.00875 17.4865 -3.83162 -171.499 5.00495 -175.181
lowerback 0.937392 5.99638 1.16942
upperback -0.718572 8.04876 0.865243
thorax -1.22352 4.02649 0.0816538
lowerneck -8.86934 -12.6628 -18.1449
upperneck 9.59251 -17.0213 15.9144
head 7.35065 -8.07606 6.16277
rclavicle 1.1145e-013 1.39522e-014
rhumerus -13.9602 -16.3086 -89.6858
rradius 18.2272
rwrist 17.5917
rhand -12.8375 18.6181
rfingers 7.12502
rthumb 13.2498 -10.9408
lclavicle 1.1145e-013 1.39522e-014
lhumerus -28.4905 9.51109 84.2022
lradius 42.4236
lwrist -7.40668
lhand -1.14699 30.009
lfingers 7.12502
lthumb 24.4913 58.463
rfemur 17.0593 2.84685 27.8583
rtibia 8.19184
rfoot 2.5189 9.95878
rtoes 8.5973
lfemur -33.3359 -1.91577 -13.8432
ltibia 28.3924
lfoot -4.03125 1.41692
ltoes -13.4051
205
root -6.04216 17.4845 -4.00587 -171.72 4.27916 -175.804
lowerback 1.44195 5.75389 0.672386
upperback -0.779478 7.71726 0.758353
thorax -1.6191 3.85968 0.185502
lowerneck -8.91305 -12.6302 -17.9352
upperneck 9.25798 -16.8904 15.6697
head 7.18537 -8.01576 6.07215
rclavicle 1.08623e-013 1.60519e-014
rhumerus -17.4187 -17.8505 -88.1133
rradius 18.0831
rwrist 17.8914
rhand -13.0083 18.4939
rfingers 7.12502
rthumb 13.0852 -11.0757
lclavicle 1.08623e-013 1.60519e-014
lhumerus -28.833 9.74396 83.981
lradius 42.5261
lwrist -6.71864
lhand -1.52168 29.3193
lfingers 7.12502
lthumb 24.1321 57.8215
rfemur 15.098 1.97309 27.0335
rtibia 13.0687
rfoot 2.67009 10.2098
rtoes 7.59501
lfemur -32.6073 -1.9296 -14.8337
ltibia 28.1829
lfoot -3.03823 0.598279
ltoes -13.2752
206
root -6.06847 17.4862 -4.18869 -171.776 3.68064 -176.294
lowerback 1.68723 5.54243 0.420542
upperback -0.898753 7.42347 0.530335
thorax -1.87958 3.71035 0.0651226
lowerneck -8.61038 -12.6187 -17.8956
upperneck 8.77047 -16.8867 15.8117
head 6.989 -8.02461 6.133
rclavicle -3.5023e-014 -1.74868e-015
rhumerus -20.8368 -19.4996 -86.6017
rradius 17.7828
rwrist 18.1771
rhand -13.7042 18.6228
rfingers 7.12502
rthumb 12.4143 -10.9885
lclavicle -3.5023e-014 -1.74868e-015
lhumerus -29.2143 9.9676 83.4001
lradius 42.6365
lwrist -6.61434
lhand -1.42358 29.9035
lfingers 7.12502
lthumb 24.2262 58.3931
rfemur 13.4991 1.22866 26.304
rtibia 16.8254
rfoot 3.84372 10.3168
rtoes 7.46758
lfemur -31.9906 -1.17763 -15.9039
ltibia 28.0075
lfoot -2.60402 -1.05862
ltoes -15.8581
207
root -6.07228 17.5042 -4.40611 -171.708 3.44836 -176.754
lowerback 1.27718 5.39953 -0.175355
upperback -0.884096 7.21284 0.430654
thorax -1.69565 3.61133 0.336855
lowerneck -8.82984 -12.6581 -17.9033
upperneck 8.85166 -16.8893 15.7082
head 7.04303 -8.01849 6.08673
rclavicle 9.63531e-014 -1.45361e-015
rhumerus -24.3526 -22.1489 -84.3443
rradius 17.5423
rwrist 20.2959
rhand -14.1591 20.0966
rfingers 7.12502
rthumb 11.9757 -9.54079
lclavicle 9.63531e-014 -1.45361e-015
lhumerus -29.452 10.3034 82.8792
lradius 42.6239
lwrist -6.35857
lhand -0.911063 31.2536
lfingers 7.12502
lthumb 24.7175 59.6769
rfemur 11.9141 0.838453 25.5486
rtibia 20.3416
rfoot 5.71099 10.3406
rtoes 8.36774
lfemur -31.4799 0.0964918 -16.9338
ltibia 28.159
lfoot -2.85683 -2.83613
ltoes -15.6077
208
root -6.1176 17.5147 -4.63292 -172.276 2.89093 -177.662
lowerback 1.21853 5.09708 -0.895168
upperback -0.508079 6.7904 0.447161
thorax -1.35814 3.40416 0.784414
lowerneck -9.29251 -12.7056 -17.999
upperneck 8.88825 -16.7476 15.1972
head 7.06641 -7.94757 5.9306
rclavicle 9.68019e-014 4.82053e-015
rhumerus -27.6265 -22.9997 -81.9794
rradius 17.4212
rwrist 20.3008
rhand -13.5544 22.087
rfingers 7.12502
rthumb 12.5587 -7.51553
lclavicle 9.68019e-014 4.82053e-015
lhumerus -29.5943 10.9264 82.7724
lradius 42.4298
lwrist -5.88154
lhand -0.393812 31.9571
lfingers 7.12502
lthumb 25.2131 60.3115
rfemur 11.1482 -0.396888 23.9064
rtibia 23.4303
rfoot 8.29809 10.8348
rtoes 9.73757
lfemur -30.3183 0.569316 -18.4744
ltibia 28.373
lfoot -3.30039 -4.38589
ltoes -12.4113
209
root -6.13745 17.529 -4.74975 -171.397 3.68042 -175.934
lowerback 1.33378 5.34748 0.428805
upperback -0.983224 7.18675 1.04968
thorax -1.83475 3.60295 0.623541
lowerneck -8.95665 -12.6159 -18.2943
upperneck 8.35995 -16.5674 15.2498
head 6.84172 -7.8822 6.04314
rclavicle 1.02871e-014 3.27995e-015
rhumerus -30.9476 -23.1693 -79.6309
rradius 17.2106
rwrist 19.9996
rhand -12.3676 18.8305
rfingers 7.12502
rthumb 13.7028 -10.6983
lclavicle 1.02871e-014 3.27995e-015
lhumerus -30.062 11.3275 82.5835
lradius 42.113
lwrist -5.32545
lhand -0.681649 31.5798
lfingers 7.12502
lthumb 24.9373 59.9728
rfemur 8.35341 1.18282 25.7032
rtibia 26.3955
rfoot 11.3435 10.1128
rtoes 10.5398
lfemur -30.8943 1.47491 -16.6125
ltibia 28.6408
lfoot -3.23617 -4.74545
ltoes -9.86573
210
root -6.17011 17.5321 -4.93895 -171.917 2.88102 -176.877
lowerback 1.83694 4.91495 -0.320888
upperback -0.898458 6.58245 0.952161
thorax -2.095 3.30494 0.907494
lowerneck -8.77951 -12.4302 -18.2963
upperneck 8.01707 -16.2992 15.2784
head 6.66075 -7.76167 6.10925
rclavicle 2.26118e-015 -4.37326e-015
rhumerus -34.1708 -23.8555 -77.1448
rradius 16.8602
rwrist 20.5897
rhand -13.1551 19.446
rfingers 7.12502
rthumb 12.9437 -10.1325
lclavicle 2.26118e-015 -4.37326e-015
lhumerus -30.6058 11.5698 82.1577
lradius 41.8135
lwrist -4.6319
lhand -1.44591 31.1544
lfingers 7.12502
lthumb 24.2047 59.6469
rfemur 7.29501 0.454994 24.4695
rtibia 29.4473
rfoot 13.8409 10.5451
rtoes 11.0296
lfemur -29.778 1.31766 -17.932
ltibia 28.6513
lfoot -3.56343 -5.94871
ltoes -7.61066
211
root -6.19606 17.5475 -5.13279 -172.202 2.2938 -177.763
lowerback 1.87807 4.49125 -1.02656
upperback -0.69281 5.98643 0.81964
thorax -1.95204 3.01073 1.18988
lowerneck -9.30728 -12.2633 -18.0871
upperneck 8.1233 -15.9559 14.9646
head 6.67804 -7.57933 6.00263
rclavicle -4.69505e-014 -3.47873e-015
rhumerus -36.9072 -24.1138 -75.0224
rradius 16.5667
rwrist 20.3754
rhand -12.8588 21.5918
rfingers 7.12502
rthumb 13.2293 -7.96844
lclavicle -4.69505e-014 -3.47873e-015
lhumerus -30.928 11.8669 81.5847
lradius 41.6575
lwrist -4.23648
lhand -1.16191 32.4861
lfingers 7.12502
lthumb 24.477 60.9421
rfemur 5.86079 0.00430508 23.257
rtibia 32.7321
rfoot 16.0908 10.6774
rtoes 10.7892
lfemur -28.8386 1.27152 -19.1785
ltibia 28.6146
lfoot -4.10975 -6.83327
ltoes -7.29392
